<svg width="512" height="451" viewBox="0 0 512 451" fill="none" xmlns="http://www.w3.org/2000/svg">
<path d="M341.346 1.60352C361.694 1.60369 383.472 0.828292 401.12 3.52832C423.509 6.95388 440.031 9.95788 470.093 27.4014C509.841 50.4651 513.272 94.1029 507.903 113.14C503.928 127.23 492.765 145.617 474.894 163.068C457.045 180.498 432.578 196.92 402.104 207.14C400.094 207.814 399.526 209.891 399.637 211.373C399.749 212.857 400.617 214.816 402.676 215.219C425.051 219.599 460.997 233.127 487.194 264.563C502.887 283.396 506.146 303.544 503.859 321.122C501.565 338.751 493.688 353.781 487.162 362.184L487.124 362.234C481.411 370.265 473.568 382.004 453.116 393.416C432.6 404.863 399.314 416.02 342.674 422.556C270.514 430.882 93.3569 442.908 1.98486 448.959C1.73344 448.976 1.47685 448.776 1.50146 448.422L5.22314 394.923C5.24255 394.646 5.43313 394.481 5.64697 394.464C41.7186 391.599 92.5421 389.572 140.384 387.346C188.171 385.122 233.042 382.697 257.073 379.028C281.229 375.34 308.698 372.3 334.093 368.668C359.357 365.054 382.47 360.866 397.403 354.893C418.029 346.642 435.846 321.096 435.846 292.546C435.846 275.489 429.655 264.304 419.767 256.61C409.987 249 396.701 244.896 382.685 241.643C371.641 239.079 356.751 238.497 342.518 238.809C328.257 239.121 314.535 240.335 305.768 241.412C304.118 241.615 302.853 242.953 302.72 244.596L295.486 333.82C295.466 334.061 295.278 334.253 295.038 334.277L259.029 337.878C258.723 337.909 258.462 337.658 258.48 337.352L263.702 247.529C263.83 245.321 261.903 243.548 259.712 243.861L218.218 249.789C216.598 250.021 215.354 251.345 215.224 252.977L208.498 337.644C208.477 337.903 208.259 338.104 207.999 338.104H167.984C167.695 338.103 167.466 337.859 167.485 337.57L183.73 93.9023C183.746 93.6576 183.938 93.4614 184.182 93.4385L228.111 89.3193C228.42 89.2905 228.681 89.5485 228.656 89.8584L220.035 194.642C219.864 196.721 221.538 198.496 223.636 198.423C227.956 198.272 237.636 197.912 244.437 197.497C252.243 197.021 263.498 196.033 267.755 195.65C269.504 195.493 270.844 194.069 270.926 192.333L275.755 89.5801C275.768 89.3134 275.987 89.1035 276.254 89.1035H311.246C311.531 89.1035 311.76 89.3426 311.746 89.6279L306.961 187.21C306.859 189.308 308.611 191.094 310.788 190.854C334.458 188.247 368.528 180.998 395.942 167.337C423.273 153.717 444.598 133.378 441.336 104.436C439.704 89.9483 434.503 79.1058 427.079 71.0322C419.668 62.9745 410.121 57.7599 399.917 54.3799C379.566 47.6385 356.276 48.1035 341.346 48.1035C341.34 48.1035 341.334 48.1034 341.329 48.1035C298.47 48.6 198.6 53.6278 140.205 69.8057C138.857 70.1791 137.874 71.2891 137.699 72.6992C133.175 109.122 126.981 165.498 122.799 218.655C118.624 271.735 116.433 321.827 119.987 345.541C120.011 345.702 119.964 345.83 119.878 345.926C119.79 346.025 119.646 346.104 119.454 346.104H66.4907C66.1525 346.104 65.9719 345.857 65.9888 345.615C69.0877 301.108 73.4185 235.218 76.479 180.155C78.0091 152.626 79.2219 127.792 79.8042 109.688C80.0952 100.639 80.2294 93.2518 80.1655 88.0439C80.1336 85.4453 80.0525 83.356 79.9116 81.8633C79.8418 81.1234 79.7529 80.4808 79.6343 79.9785C79.5756 79.7303 79.4977 79.4637 79.3862 79.2188C79.2975 79.0237 79.0812 78.5955 78.6177 78.3174C78.1348 78.0277 77.52 77.8703 76.9556 77.7666C76.3495 77.6553 75.6214 77.576 74.8032 77.5205C73.1642 77.4093 71.048 77.3867 68.5864 77.4316C63.6565 77.5217 57.2268 77.8862 50.2192 78.4004C36.1978 79.4293 19.7779 81.0634 8.229 82.3301C7.91072 82.3647 7.6375 82.0928 7.68311 81.7617L15.1167 27.873C15.1537 27.6054 15.329 27.4669 15.521 27.4482C110.652 18.2457 306.626 1.60323 341.346 1.60352Z" fill="black" stroke="black" stroke-width="3" stroke-miterlimit="3.99933" stroke-linecap="round" stroke-linejoin="round"/>
</svg>
